<svg width="57" height="81" viewBox="0 0 57 81" fill="none" xmlns="http://www.w3.org/2000/svg">
<g opacity="0.3">
<path fill-rule="evenodd" clip-rule="evenodd" d="M28.406 54.9533H19.2521C11.3413 50.1047 1.62241 39.7312 1.62241 28.23C1.62241 13.4589 13.6016 1.50677 28.406 1.50677C43.2104 1.50677 55.1895 13.4589 55.1895 28.23C55.1895 39.7312 45.3575 50.1047 37.5598 54.9533H28.406Z" fill="#3F4785" fill-opacity="0.3"/>
<path fill-rule="evenodd" clip-rule="evenodd" d="M28.4059 54.9533H20.9472C14.6186 50.1047 6.70786 39.7312 6.70786 28.23C6.70786 13.4589 16.4268 1.50677 28.4059 1.50677C40.3851 1.50677 50.104 13.4589 50.104 28.23C50.104 39.7312 42.1932 50.1047 35.8646 54.9533H28.4059Z" fill="white"/>
<path fill-rule="evenodd" clip-rule="evenodd" d="M28.406 54.9533H23.2075C18.6871 50.1047 13.1495 39.7312 13.1495 28.23C13.1495 13.4589 20.0432 1.50677 28.519 1.50677C36.9948 1.50677 43.8884 13.4589 43.8884 28.23C43.8884 39.7312 38.3509 50.1047 33.8305 54.9533H28.406Z" fill="#3F4785" fill-opacity="0.3"/>
<path fill-rule="evenodd" clip-rule="evenodd" d="M34.8476 70.0626V78.2938C34.8476 79.1959 34.1695 79.8724 33.2654 79.8724H23.5465C22.6424 79.8724 21.9643 79.1959 21.9643 78.2938V70.0626H34.8476Z" fill="white"/>
<path fill-rule="evenodd" clip-rule="evenodd" d="M19.252 54.9532H37.5598V58.1104C37.5598 58.5614 37.2207 59.0125 36.6557 59.0125H20.0431C19.591 59.0125 19.139 58.6742 19.139 58.1104V54.9532H19.252Z" fill="white"/>
<path fill-rule="evenodd" clip-rule="evenodd" d="M28.4059 54.9533H26.2587C24.4505 50.1047 22.1903 39.7312 22.1903 28.23C22.1903 13.4589 25.0156 1.50677 28.4059 1.50677C31.7962 1.50677 34.6215 13.4589 34.6215 28.23C34.6215 39.7312 32.3613 50.1047 30.5531 54.9533H28.4059Z" fill="white"/>
<path fill-rule="evenodd" clip-rule="evenodd" d="M34.8475 70.0626V78.2938C34.8475 79.1959 34.1695 79.8724 33.2654 79.8724H29.762C30.6661 79.8724 31.3442 79.1959 31.3442 78.2938V70.0626H34.8475Z" fill="#3F4785" fill-opacity="0.3"/>
<path fill-rule="evenodd" clip-rule="evenodd" d="M31.4572 66.0034H34.9606C35.4126 66.0034 35.8646 66.3417 35.8646 66.9054V69.1606C35.8646 69.6116 35.5256 70.0626 34.9606 70.0626H31.4572C31.9093 70.0626 32.3613 69.7244 32.3613 69.1606V66.9054C32.2483 66.4544 31.9093 66.0034 31.4572 66.0034Z" fill="#3F4785" fill-opacity="0.3"/>
<path fill-rule="evenodd" clip-rule="evenodd" d="M34.1695 54.9532H37.6729V58.1104C37.6729 58.5614 37.3338 59.0125 36.7688 59.0125H33.2654C33.7175 59.0125 34.1695 58.6742 34.1695 58.1104V54.9532Z" fill="#3F4785" fill-opacity="0.3"/>
<path d="M28.406 56.3064H20.4952V57.7722H24.9027H31.7963H36.2037V56.3064H28.406ZM22.9815 64.7631H23.6595V60.2529H21.7383L22.9815 64.7631ZM26.2588 64.7631H30.6662V60.2529H26.2588V64.7631ZM33.1524 64.7631H33.8305L35.0736 60.2529H33.1524V64.7631ZM36.3167 65.3269L36.4297 65.4396C36.7688 65.7779 36.9948 66.3417 36.9948 66.7927V69.0478C36.9948 69.6116 36.7688 70.1754 36.3167 70.5137C36.2037 70.6264 36.2037 70.6264 36.0907 70.7392V78.0683C36.0907 78.8576 35.7517 79.5342 35.2996 80.098L35.1866 80.2107C34.6216 80.6617 33.9435 81 33.2654 81H23.5465C22.7554 81 22.0774 80.6617 21.5123 80.2107C20.9473 79.6469 20.7212 78.9704 20.7212 78.1811V70.7392C20.6082 70.6264 20.6083 70.6264 20.4952 70.5137C20.1562 70.1754 19.8172 69.6116 19.8172 69.0478V66.7927C19.8172 66.2289 20.0432 65.6652 20.4952 65.3269L19.0261 59.9146C18.9131 59.8018 18.6871 59.6891 18.574 59.5763C18.235 59.238 17.896 58.6743 17.896 58.1105V55.6298C13.4886 52.8109 8.74213 48.4134 5.2388 43.1139C2.30052 38.6036 0.266296 33.5296 0.266296 28.2301C0.266296 20.4499 3.43062 13.459 8.5161 8.38496C13.6016 3.31093 20.6083 0.153748 28.406 0.153748C36.2037 0.153748 43.2104 3.31093 48.2959 8.38496C53.3813 13.459 56.5457 20.4499 56.5457 28.2301C56.5457 33.5296 54.5115 38.7164 51.5732 43.1139C48.0699 48.4134 43.2104 52.8109 38.916 55.6298V58.1105C38.916 58.6743 38.6899 59.238 38.2379 59.5763C38.1249 59.6891 37.8989 59.8018 37.7859 59.9146L36.3167 65.3269ZM33.6045 71.303H23.3205V78.2939C23.3205 78.4066 23.3205 78.4066 23.4335 78.5194C23.4335 78.5194 23.5465 78.6321 23.6595 78.6321H33.3785C33.4915 78.6321 33.4915 78.6321 33.6045 78.5194C33.7175 78.4066 33.7175 78.4066 33.7175 78.2939V71.303H33.6045ZM34.3955 67.3565H31.7963H24.9027H22.3034V68.8223H34.2825V67.3565H34.3955ZM19.5911 53.713H28.406H37.2208C41.4022 51.1196 46.0356 46.8349 49.426 41.7608C52.1382 37.7016 53.9464 33.0786 53.9464 28.2301C53.9464 21.2392 51.1212 14.8121 46.4877 10.1891C41.8543 5.56604 35.5257 2.74714 28.406 2.74714C21.3993 2.74714 14.9577 5.56604 10.3243 10.1891C5.69084 14.8121 2.86556 21.1264 2.86556 28.2301C2.86556 33.0786 4.67374 37.7016 7.38599 41.7608C10.7763 46.8349 15.4097 51.0068 19.5911 53.713Z" fill="white"/>
<path fill-rule="evenodd" clip-rule="evenodd" d="M21.9643 66.0034H34.8475C35.2996 66.0034 35.7516 66.3417 35.7516 66.9054V69.1606C35.7516 69.6116 35.4126 70.0626 34.8475 70.0626H21.9643C21.5123 70.0626 21.0602 69.7244 21.0602 69.1606V66.9054C21.1733 66.4544 21.5123 66.0034 21.9643 66.0034Z" fill="white"/>
</g>
</svg>
