<svg width="320" height="56" viewBox="0 0 320 56" fill="none" xmlns="http://www.w3.org/2000/svg">
<g opacity="0.4">
<path fill-rule="evenodd" clip-rule="evenodd" d="M35.7677 43.1294H12.0354C15.9908 29.7114 32.6034 29.8241 35.7677 43.1294Z" fill="white"/>
<path fill-rule="evenodd" clip-rule="evenodd" d="M243.016 43.9186C246.406 24.0735 273.868 21.5928 273.868 46.963C279.857 39.2956 297.713 38.7318 297.713 53.8412H223.578C222.9 40.7614 233.184 35.9129 243.016 43.9186Z" fill="white"/>
<path fill-rule="evenodd" clip-rule="evenodd" d="M225.099 53.8412H206.226C204.87 41.2125 223.065 42.0018 225.099 53.8412Z" fill="white"/>
<path fill-rule="evenodd" clip-rule="evenodd" d="M100.003 15.504C95.0303 -5.46863 70.0549 -2.08593 69.1508 18.5485C63.1613 10.881 49.6 10.6555 47.2267 25.4266H119.554C120.232 12.2341 109.722 7.49835 100.003 15.504Z" fill="white"/>
<path d="M35.6317 55.0815C34.9536 55.0815 34.3886 54.5177 34.3886 53.8411C34.3886 53.1646 34.9536 52.6008 35.6317 52.6008H73.8293C74.5074 52.6008 75.0724 53.1646 75.0724 53.8411C75.0724 54.5177 74.5074 55.0815 73.8293 55.0815H35.6317ZM324.261 55.0815C323.583 55.0815 323.018 54.5177 323.018 53.8411C323.018 53.1646 323.583 52.6008 324.261 52.6008H353.757C354.435 52.6008 355 53.1646 355 53.8411C355 54.5177 354.435 55.0815 353.757 55.0815H324.261ZM260.071 41.7762C261.766 35.3491 265.948 30.8389 270.807 28.6965C273.18 27.6817 275.779 27.1179 278.266 27.3434C280.752 27.4562 283.238 28.2455 285.498 29.7113C289.341 32.3047 292.279 37.0404 292.844 44.0313C294.765 42.5655 297.025 41.4379 299.512 40.8742H299.625C302.224 40.3104 305.049 40.1976 307.648 40.8742C310.248 41.5507 312.621 43.0165 314.316 45.2717C315.898 47.414 316.802 50.2329 316.802 53.8411C316.802 54.5177 316.237 55.0815 315.559 55.0815H241.424C240.746 55.0815 240.181 54.5177 240.181 53.8411C239.955 48.9926 241.198 45.1589 243.345 42.6783C244.362 41.5507 245.493 40.6487 246.736 39.9721C247.979 39.2956 249.448 38.9573 250.917 38.9573C253.742 38.619 256.907 39.5211 260.071 41.7762ZM271.937 30.9516C267.304 32.9812 263.348 37.4915 262.218 44.1441C262.218 44.3696 262.105 44.5951 261.992 44.7079C261.54 45.2717 260.749 45.3844 260.184 44.9334C257.02 42.34 253.855 41.2124 251.03 41.3252C249.9 41.3252 248.883 41.6635 247.866 42.1145C246.849 42.5655 246.058 43.242 245.267 44.1441C243.684 46.061 242.78 48.8799 242.667 52.4881H314.203C313.977 50.1202 313.299 48.2033 312.282 46.7375C310.926 44.9334 309.118 43.8058 306.97 43.3548C304.823 42.791 302.45 42.791 300.19 43.3548C297.252 44.0313 294.539 45.6099 292.844 47.7523C292.618 48.0906 292.279 48.2033 291.827 48.2033C291.149 48.2033 290.584 47.6395 290.584 46.963C290.584 39.2956 287.872 34.3343 284.142 31.8537C282.334 30.6133 280.3 30.0496 278.266 29.824C276.118 29.7113 273.971 30.0496 271.937 30.9516ZM234.079 55.0815H215.206C214.528 55.0815 213.963 54.5177 213.963 53.8411C213.511 49.4436 215.206 46.512 217.805 44.8206C219.048 44.0313 220.517 43.5803 222.099 43.4675C223.569 43.3548 225.264 43.4676 226.733 43.9186C230.801 45.1589 234.531 48.4288 235.435 53.6156C235.548 54.2922 235.096 54.9687 234.418 55.0815C234.305 55.0815 234.192 55.0815 234.079 55.0815ZM216.336 52.4881H232.383C231.253 49.2181 228.654 47.1885 225.829 46.2865C224.586 45.9482 223.342 45.8354 222.099 45.9482C220.969 46.061 219.839 46.3992 218.935 46.963C217.466 47.9778 216.336 49.7819 216.336 52.4881ZM115.417 26.5541C114.739 26.5541 114.174 25.9903 114.174 25.3138C114.174 24.6373 114.739 24.0735 115.417 24.0735H127.848C129.092 20.6908 131.126 18.3229 133.612 16.8571C135.533 15.7295 137.793 15.1657 139.941 15.1657C142.088 15.1657 144.348 15.8423 146.156 17.0826C148.416 18.5484 150.338 20.9163 151.242 24.0735H192.152C192.83 24.0735 193.395 24.6373 193.395 25.3138C193.395 25.9903 192.83 26.5541 192.152 26.5541H140.167C139.489 26.5541 138.923 25.9903 138.923 25.3138C138.923 24.6373 139.489 24.0735 140.167 24.0735H148.529C147.738 21.9311 146.269 20.2398 144.687 19.225C143.218 18.2101 141.523 17.7591 139.828 17.7591C138.132 17.7591 136.324 18.2101 134.855 19.1122C132.708 20.3525 130.9 22.6076 129.996 25.6521C129.883 26.2158 129.318 26.6669 128.753 26.6669H115.417V26.5541ZM201.644 26.5541C200.966 26.5541 200.401 25.9903 200.401 25.3138C200.401 24.6373 200.966 24.0735 201.644 24.0735H211.024C211.702 24.0735 212.267 24.6373 212.267 25.3138C212.267 25.9903 211.702 26.5541 211.024 26.5541H201.644ZM84.7914 15.7295C83.3222 9.41515 79.9319 5.46868 75.9765 3.66458C73.8293 2.76253 71.6821 2.3115 69.4219 2.53701C67.1617 2.76253 65.0145 3.55182 63.0933 4.90489C59.3639 7.49829 56.6517 12.0085 56.3126 18.4357C56.3126 19.1122 55.6346 19.676 54.9565 19.676C54.5045 19.676 54.1654 19.4505 53.9394 19.1122C52.0182 16.6316 49.193 15.053 46.3677 14.6019C45.0116 14.3764 43.7685 14.3764 42.4123 14.7147C41.1692 15.053 39.9261 15.6167 38.796 16.406C36.8748 17.8719 35.2927 20.3525 34.3886 23.9607H104.116C104.116 20.3525 103.099 17.5336 101.517 15.7295C100.726 14.8275 99.9348 14.1509 98.9177 13.6999C97.9006 13.2489 96.8835 12.9106 95.6404 12.9106C92.8151 12.7978 89.6508 13.9254 86.4865 16.5188C85.9215 16.9698 85.1304 16.8571 84.6783 16.2933C84.9044 16.0678 84.7914 15.955 84.7914 15.7295ZM76.9936 1.40945C81.175 3.32631 84.7913 7.27278 86.7125 13.3616C89.8768 11.1065 93.1542 10.2044 96.0924 10.3172C97.5616 10.43 99.0307 10.7682 100.387 11.4448C101.63 12.1213 102.873 13.0234 103.777 14.1509C105.924 16.7443 107.054 20.4653 106.941 25.3138C106.941 25.9903 106.376 26.5541 105.698 26.5541H33.2585C33.1455 26.5541 33.1455 26.5541 33.0324 26.5541C32.3544 26.4414 31.9023 25.7648 32.0153 25.0883C32.8064 20.0142 34.9536 16.5188 37.6659 14.4892C39.022 13.3616 40.6042 12.6851 42.1863 12.3468C43.7685 12.0085 45.4636 11.8958 47.0458 12.2341C49.645 12.6851 52.1313 13.8126 54.2785 15.6167C55.1825 9.75342 58.1208 5.46868 61.8502 2.87529C64.1104 1.2967 66.7096 0.394647 69.3089 0.0563784C71.7951 -0.169134 74.5074 0.281888 76.9936 1.40945ZM-33.7569 44.4824C-34.435 44.4824 -35 43.9186 -35 43.242C-35 42.5655 -34.435 42.0017 -33.7569 42.0017H-16.8053C-15.4492 38.168 -13.1889 35.4619 -10.4767 33.7705C-8.32947 32.5302 -5.95625 31.8537 -3.69604 31.9664C-1.32281 31.9664 0.937405 32.643 3.08461 33.996C5.57084 35.6874 7.71804 38.2808 8.84814 42.0017H12.8035C13.4816 42.0017 14.0466 42.5655 14.0466 43.242C14.0466 43.9186 13.4816 44.4824 12.8035 44.4824H-0.531731C-1.2098 44.4824 -1.77486 43.9186 -1.77486 43.242C-1.77486 42.5655 -1.2098 42.0017 -0.531731 42.0017H6.13589C5.23181 39.2956 3.64967 37.3787 1.72848 36.1384C0.146332 35.1236 -1.77486 34.5598 -3.58303 34.4471C-5.50422 34.4471 -7.31237 34.8981 -9.00754 35.9129C-11.3808 37.3787 -13.415 39.8593 -14.5451 43.4675C-14.6581 44.0313 -15.2231 44.4824 -15.7882 44.4824H-33.7569ZM21.3923 44.4824C20.7143 44.4824 20.1492 43.9186 20.1492 43.242C20.1492 42.5655 20.7143 42.0017 21.3923 42.0017H49.419C50.0971 42.0017 50.6621 42.5655 50.6621 43.242C50.6621 43.9186 50.0971 44.4824 49.419 44.4824H21.3923ZM82.3051 55.0815C81.627 55.0815 81.062 54.5177 81.062 53.8411C81.062 53.1646 81.627 52.6008 82.3051 52.6008H91.911C92.5891 52.6008 93.1541 53.1646 93.1541 53.8411C93.1541 54.5177 92.5891 55.0815 91.911 55.0815H82.3051Z" fill="#F8F9FF"/>
</g>
</svg>
