<svg width="471" height="100" viewBox="0 0 471 100" fill="none" xmlns="http://www.w3.org/2000/svg">
<path d="M15 19.6171L10.0557 22.2163L11 16.711L7 12.8122L12.5283 12.0089L15 7L17.4717 12.0089L23 12.8122L19 16.711L19.9443 22.2163L15 19.6171Z" stroke="#28282A" stroke-width="2" stroke-linecap="round" stroke-linejoin="round"/>
<path d="M53 13L50 16L47 13" stroke="#28282A" stroke-width="2" stroke-linecap="round" stroke-linejoin="round"/>
<path d="M88 16L85 13L82 16" stroke="#28282A" stroke-width="2" stroke-linecap="round" stroke-linejoin="round"/>
<path d="M120.672 20.7854L123.435 18.0229L128 21.207L126.976 22.231C126.294 22.9132 125.292 23.1662 124.368 22.8901C121.542 22.0459 119.004 20.4983 116.753 18.2472C114.502 15.9961 112.954 13.4576 112.11 10.6318C111.834 9.70751 112.087 8.70622 112.769 8.02409L113.793 7L116.977 11.5652L114.215 14.3277" stroke="#28282A" stroke-width="2" stroke-linecap="round" stroke-linejoin="round"/>
<path fill-rule="evenodd" clip-rule="evenodd" d="M146 24C146.489 22.4221 147.055 20.9219 147.573 19.3732C144.14 13.369 148.389 6.60971 154.143 6.04823C159.576 5.51803 164.031 9.42052 164.044 14.7465C164.058 20.3662 158.608 25.0851 152.477 23.1671C152.015 23.0224 151.443 22.551 150.904 22.5194C150.152 22.475 149.166 23.0153 148.406 23.2596C147.573 23.5276 146.849 23.796 146 24ZM151.089 20.8538C156.04 23.8584 161.968 20.4883 162.471 15.5793C162.926 11.1353 159.378 7.18118 154.606 7.52878C149.157 7.92553 145.885 14.4289 149.239 19.1881C148.942 20.0017 148.664 20.8344 148.406 21.6866C149.315 21.4234 150.153 21.0892 151.089 20.8538Z" fill="#28282A"/>
<path fill-rule="evenodd" clip-rule="evenodd" d="M153.033 10.5824C153.553 11.6717 154.359 13.2829 153.033 14.0063C153.706 15.4302 154.82 16.4141 156.271 17.0599C156.754 16.7407 157.071 16.2556 157.474 15.857C158.317 16.1866 159.104 16.571 159.788 17.0599C159.858 18.6518 158.516 19.2405 157.382 19.1882C154.988 19.0781 151.698 16.054 150.904 13.8212C150.433 12.4964 150.975 9.96248 153.033 10.5824Z" fill="#28282A"/>
<path d="M188.857 9.14289L187.054 8.24132C186.737 8.08262 186.387 8 186.032 8H185.233C184.626 8 184.045 8.24082 183.616 8.66949L182.669 9.61628C182.241 10.045 182 10.6263 182 11.2326V17.0626C182 17.8269 182.382 18.5406 183.018 18.9645L187.437 21.9108C188.279 22.4724 189.391 22.413 190.168 21.7649L195.715 17.1431M192.805 14.7593C192.116 13.8358 190.847 13.5703 189.845 14.1397L187.724 15.3449C187.043 15.732 186.187 15.6163 185.633 15.0624C184.909 14.3385 184.963 13.1494 185.75 12.4942L190.507 8.5298C190.918 8.18747 191.435 8 191.97 8H192.889C193.244 8 193.594 8.08262 193.911 8.24132L196.736 9.654C197.511 10.0412 198 10.8327 198 11.6985V14.834C198 17.033 195.199 17.9637 193.883 16.2018L192.805 14.7593Z" stroke="#28282A" stroke-width="2" stroke-linecap="round" stroke-linejoin="round"/>
</svg>
