<?xml version="1.0" standalone="no"?>
<!DOCTYPE svg PUBLIC "-//W3C//DTD SVG 20010904//EN"
 "http://www.w3.org/TR/2001/REC-SVG-20010904/DTD/svg10.dtd">
<svg version="1.0" xmlns="http://www.w3.org/2000/svg"
 width="700.000000pt" height="700.000000pt" viewBox="0 0 700.000000 700.000000"
 preserveAspectRatio="xMidYMid meet">
<metadata>
Created by potrace 1.14, written by Peter Selinger 2001-2017
</metadata>
<g transform="translate(0.000000,700.000000) scale(0.100000,-0.100000)"
fill="#000000" stroke="none">
<path d="M1615 6988 c-613 -69 -1161 -457 -1430 -1012 -93 -192 -151 -395
-174 -608 -15 -134 -15 -3602 0 -3736 84 -780 650 -1417 1410 -1586 63 -14
161 -30 218 -36 142 -14 3580 -14 3722 0 471 48 906 276 1207 635 239 284 385
628 422 994 14 142 14 3580 0 3722 -79 780 -649 1424 -1411 1593 -63 13 -158
30 -211 35 -122 14 -3636 13 -3753 -1z m3003 -1374 c-2 -13 -185 -77 -723
-254 l-720 -236 0 -1689 0 -1689 720 -211 c657 -193 720 -213 723 -233 l3 -22
-1070 0 -1071 0 0 2175 0 2175 1071 0 c989 0 1070 -1 1067 -16z"/>
</g>
</svg>
