<?xml version="1.0" standalone="no"?>
<!DOCTYPE svg PUBLIC "-//W3C//DTD SVG 20010904//EN"
 "http://www.w3.org/TR/2001/REC-SVG-20010904/DTD/svg10.dtd">
<svg version="1.0" xmlns="http://www.w3.org/2000/svg"
 width="700.000000pt" height="700.000000pt" viewBox="0 0 700.000000 700.000000"
 preserveAspectRatio="xMidYMid meet">
<metadata>
Created by potrace 1.11, written by Peter Selinger 2001-2013
</metadata>
<g transform="translate(0.000000,700.000000) scale(0.100000,-0.100000)"
fill="#000000" stroke="none">
<path d="M1769 6996 c-2 -2 -33 -6 -69 -9 -127 -11 -311 -54 -445 -104 -450
-166 -830 -504 -1044 -928 -64 -127 -71 -143 -104 -245 -47 -143 -62 -199 -72
-266 -4 -21 -8 -46 -11 -54 -2 -8 -7 -44 -11 -80 -11 -87 -10 -3548 0 -3625
40 -299 148 -590 310 -833 74 -109 94 -135 182 -231 254 -276 579 -470 941
-561 237 -60 187 -58 2089 -56 957 1 1763 6 1790 10 88 13 249 48 267 57 9 5
24 9 33 9 23 0 197 66 293 112 167 79 347 203 486 336 323 308 521 704 583
1167 4 33 8 852 8 1820 0 1885 2 1797 -51 2021 -124 528 -480 986 -964 1241
-92 49 -280 128 -324 137 -11 3 -36 9 -55 15 -18 6 -77 19 -130 30 -53 11
-112 23 -131 27 -34 8 -3563 18 -3571 10z"/>
</g>
</svg>
