<svg width="47" height="66" viewBox="0 0 47 66" fill="none" xmlns="http://www.w3.org/2000/svg">
<g opacity="0.3">
<path fill-rule="evenodd" clip-rule="evenodd" d="M23.9886 45.0067H16.5029C10.0338 41.1045 2.08612 32.7555 2.08612 23.499C2.08612 11.6107 11.8822 1.99121 23.9886 1.99121C36.095 1.99121 45.891 11.6107 45.891 23.499C45.891 32.7555 37.8509 41.1045 31.4742 45.0067H23.9886Z" fill="#3F4785" fill-opacity="0.3"/>
<path fill-rule="evenodd" clip-rule="evenodd" d="M23.9885 45.0067H17.8891C12.7138 41.1045 6.24475 32.7555 6.24475 23.499C6.24475 11.6107 14.1925 1.99121 23.9885 1.99121C33.7845 1.99121 41.7323 11.6107 41.7323 23.499C41.7323 32.7555 35.2632 41.1045 30.0879 45.0067H23.9885Z" fill="white"/>
<path fill-rule="evenodd" clip-rule="evenodd" d="M23.9886 45.0067H19.7375C16.0409 41.1045 11.5125 32.7555 11.5125 23.499C11.5125 11.6107 17.1498 1.99121 24.081 1.99121C31.0121 1.99121 36.6495 11.6107 36.6495 23.499C36.6495 32.7555 32.1211 41.1045 28.4245 45.0067H23.9886Z" fill="#3F4785" fill-opacity="0.3"/>
<path fill-rule="evenodd" clip-rule="evenodd" d="M29.2563 57.1672V63.792C29.2563 64.518 28.7018 65.0625 27.9624 65.0625H20.0147C19.2754 65.0625 18.7209 64.518 18.7209 63.792V57.1672H29.2563Z" fill="white"/>
<path fill-rule="evenodd" clip-rule="evenodd" d="M16.5029 45.0067H31.4742V47.5477C31.4742 47.9107 31.1969 48.2737 30.7349 48.2737H17.1498C16.7801 48.2737 16.4105 48.0015 16.4105 47.5477V45.0067H16.5029Z" fill="white"/>
<path fill-rule="evenodd" clip-rule="evenodd" d="M23.9886 45.0067H22.2326C20.754 41.1045 18.9057 32.7555 18.9057 23.499C18.9057 11.6107 21.2161 1.99121 23.9886 1.99121C26.761 1.99121 29.0714 11.6107 29.0714 23.499C29.0714 32.7555 27.2231 41.1045 25.7444 45.0067H23.9886Z" fill="white"/>
<path fill-rule="evenodd" clip-rule="evenodd" d="M29.2562 57.1672V63.792C29.2562 64.518 28.7017 65.0625 27.9624 65.0625H25.0975C25.8369 65.0625 26.3913 64.518 26.3913 63.792V57.1672H29.2562Z" fill="#3F4785" fill-opacity="0.3"/>
<path fill-rule="evenodd" clip-rule="evenodd" d="M26.4838 53.9003H29.3487C29.7183 53.9003 30.088 54.1725 30.088 54.6263V56.4413C30.088 56.8043 29.8107 57.1673 29.3487 57.1673H26.4838C26.8534 57.1673 27.2231 56.895 27.2231 56.4413V54.6263C27.1307 54.2633 26.8534 53.9003 26.4838 53.9003Z" fill="#3F4785" fill-opacity="0.3"/>
<path fill-rule="evenodd" clip-rule="evenodd" d="M28.7018 45.0067H31.5667V47.5477C31.5667 47.9107 31.2895 48.2737 30.8274 48.2737H27.9625C28.3322 48.2737 28.7018 48.0015 28.7018 47.5477V45.0067Z" fill="#3F4785" fill-opacity="0.3"/>
<path d="M23.9886 46.0958H17.5195V47.2755H21.1237H26.761H30.3652V46.0958H23.9886ZM19.5526 52.902H20.1071V49.272H18.536L19.5526 52.902ZM22.2327 52.902H25.8369V49.272H22.2327V52.902ZM27.87 52.902H28.4245L29.4411 49.272H27.87V52.902V52.902ZM30.4576 53.3558L30.55 53.4465C30.8273 53.7188 31.0121 54.1725 31.0121 54.5355V56.3505C31.0121 56.8043 30.8273 57.258 30.4576 57.5303C30.3652 57.621 30.3652 57.621 30.2728 57.7118V63.6105C30.2728 64.2458 29.9955 64.7903 29.6259 65.244L29.5335 65.3348C29.0714 65.6978 28.5169 65.97 27.9624 65.97H20.0147C19.3678 65.97 18.8133 65.6978 18.3512 65.3348C17.8891 64.881 17.7043 64.3365 17.7043 63.7013V57.7118C17.6119 57.621 17.6119 57.621 17.5195 57.5303C17.2422 57.258 16.965 56.8043 16.965 56.3505V54.5355C16.965 54.0818 17.1498 53.628 17.5195 53.3558L16.3181 48.9998C16.2257 48.909 16.0408 48.8183 15.9484 48.7275C15.6712 48.4553 15.3939 48.0015 15.3939 47.5478V45.5513C11.7897 43.2825 7.90829 39.7433 5.04341 35.478C2.64061 31.848 0.977112 27.7642 0.977112 23.499C0.977112 17.2372 3.56476 11.6107 7.72345 7.52698C11.8821 3.44323 17.6119 0.902222 23.9886 0.902222C30.3652 0.902222 36.095 3.44323 40.2537 7.52698C44.4124 11.6107 47 17.2372 47 23.499C47 27.7642 45.3365 31.9388 42.9337 35.478C40.0689 39.7433 36.095 43.2825 32.5832 45.5513V47.5478C32.5832 48.0015 32.3984 48.4553 32.0287 48.7275C31.9363 48.8183 31.7515 48.909 31.659 48.9998L30.4576 53.3558ZM28.2397 58.1655H19.8299V63.7921C19.8299 63.8828 19.8299 63.8828 19.9223 63.9735C19.9223 63.9735 20.0147 64.0643 20.1071 64.0643H28.0548C28.1473 64.0643 28.1472 64.0643 28.2397 63.9735C28.3321 63.8828 28.3321 63.8828 28.3321 63.7921V58.1655H28.2397ZM28.8866 54.9893H26.761H21.1237H18.9981V56.169H28.7942V54.9893H28.8866ZM16.7802 44.0085H23.9886H31.197C34.6163 41.9213 38.4054 38.4728 41.1778 34.389C43.3958 31.122 44.8744 27.4012 44.8744 23.499C44.8744 17.8725 42.5641 12.6997 38.775 8.97898C34.986 5.25822 29.8107 2.98947 23.9886 2.98947C18.2588 2.98947 12.9911 5.25822 9.20211 8.97898C5.41307 12.6997 3.10268 17.7817 3.10268 23.499C3.10268 27.4012 4.58133 31.122 6.7993 34.389C9.57176 38.4728 13.3608 41.8305 16.7802 44.0085Z" fill="white"/>
<path fill-rule="evenodd" clip-rule="evenodd" d="M18.7209 53.9003H29.2562C29.6259 53.9003 29.9956 54.1725 29.9956 54.6263V56.4413C29.9956 56.8043 29.7183 57.1673 29.2562 57.1673H18.7209C18.3512 57.1673 17.9816 56.895 17.9816 56.4413V54.6263C18.074 54.2633 18.3512 53.9003 18.7209 53.9003Z" fill="white"/>
</g>
</svg>
