<svg width="336" height="45" viewBox="0 0 336 45" fill="none" xmlns="http://www.w3.org/2000/svg">
<g opacity="0.4">
<path fill-rule="evenodd" clip-rule="evenodd" d="M37.4718 34.7119H17.0646C20.4658 23.9127 34.7509 24.0034 37.4718 34.7119Z" fill="white"/>
<path fill-rule="evenodd" clip-rule="evenodd" d="M255.149 35.3471C258.064 19.3751 281.678 17.3786 281.678 37.7974C286.828 31.6264 302.182 31.1726 302.182 43.3332H238.434C237.851 32.8061 246.694 28.9039 255.149 35.3471Z" fill="white"/>
<path fill-rule="evenodd" clip-rule="evenodd" d="M232.02 43.3333H215.792C214.626 33.1692 230.271 33.8045 232.02 43.3333Z" fill="white"/>
<path fill-rule="evenodd" clip-rule="evenodd" d="M104.718 12.4782C100.443 -4.40136 78.9665 -1.67885 78.1891 14.9284C73.0387 8.75743 61.3775 8.57593 59.3367 20.4642H121.53C122.113 9.84643 113.076 6.03492 104.718 12.4782Z" fill="white"/>
<path d="M61.3775 44.3314C60.7944 44.3314 60.3085 43.8777 60.3085 43.3332C60.3085 42.7887 60.7944 42.3349 61.3775 42.3349H94.2233C94.8064 42.3349 95.2923 42.7887 95.2923 43.3332C95.2923 43.8777 94.8064 44.3314 94.2233 44.3314H61.3775ZM309.568 44.3314C308.985 44.3314 308.499 43.8777 308.499 43.3332C308.499 42.7887 308.985 42.3349 309.568 42.3349H334.931C335.514 42.3349 336 42.7887 336 43.3332C336 43.8777 335.514 44.3314 334.931 44.3314H309.568ZM254.371 33.6229C255.829 28.4502 259.424 24.8202 263.603 23.0959C265.644 22.2792 267.879 21.8254 270.017 22.0069C272.155 22.0977 274.293 22.7329 276.236 23.9127C279.54 25.9999 282.067 29.8114 282.553 35.4379C284.205 34.2582 286.148 33.3507 288.286 32.8969H288.383C290.618 32.4432 293.048 32.3524 295.283 32.8969C297.518 33.4414 299.559 34.6212 301.016 36.4362C302.377 38.1604 303.154 40.4292 303.154 43.3332C303.154 43.8777 302.668 44.3314 302.085 44.3314H238.337C237.754 44.3314 237.268 43.8777 237.268 43.3332C237.074 39.4309 238.143 36.3454 239.989 34.3489C240.864 33.4414 241.835 32.7154 242.904 32.1709C243.973 31.6264 245.237 31.3542 246.5 31.3542C248.929 31.0819 251.65 31.8079 254.371 33.6229ZM264.575 24.9109C260.591 26.5444 257.189 30.1744 256.218 35.5287C256.218 35.7102 256.12 35.8917 256.023 35.9824C255.635 36.4362 254.954 36.5269 254.468 36.1639C251.747 34.0767 249.026 33.1692 246.597 33.2599C245.625 33.2599 244.751 33.5322 243.876 33.8952C243.001 34.2582 242.321 34.8027 241.641 35.5287C240.281 37.0714 239.503 39.3402 239.406 42.2442H300.919C300.725 40.3384 300.142 38.7957 299.267 37.6159C298.101 36.1639 296.546 35.2564 294.7 34.8934C292.853 34.4397 290.813 34.4397 288.869 34.8934C286.343 35.4379 284.01 36.7084 282.553 38.4327C282.358 38.7049 282.067 38.7957 281.678 38.7957C281.095 38.7957 280.609 38.3419 280.609 37.7974C280.609 31.6264 278.277 27.6334 275.07 25.6369C273.515 24.6387 271.766 24.1849 270.017 24.0034C268.17 23.9127 266.324 24.1849 264.575 24.9109ZM232.02 44.3314H215.792C215.209 44.3314 214.723 43.8777 214.723 43.3332C214.334 39.7939 215.792 37.4344 218.027 36.0732C219.096 35.4379 220.359 35.0749 221.72 34.9842C222.983 34.8934 224.441 34.9842 225.704 35.3472C229.202 36.3454 232.409 38.9772 233.187 43.1517C233.284 43.6962 232.895 44.2407 232.312 44.3314C232.215 44.3314 232.118 44.3314 232.02 44.3314ZM216.764 42.2442H230.563C229.591 39.6124 227.356 37.9789 224.927 37.2529C223.858 36.9807 222.789 36.8899 221.72 36.9807C220.748 37.0714 219.776 37.3437 218.999 37.7974C217.735 38.6142 216.764 40.0662 216.764 42.2442ZM129.985 21.3717C129.401 21.3717 128.916 20.9179 128.916 20.3734C128.916 19.8289 129.401 19.3752 129.985 19.3752H140.674C141.743 16.6527 143.492 14.7469 145.63 13.5672C147.282 12.6596 149.226 12.2059 151.072 12.2059C152.918 12.2059 154.862 12.7504 156.417 13.7486C158.36 14.9284 160.012 16.8342 160.79 19.3752H195.968C196.551 19.3752 197.037 19.8289 197.037 20.3734C197.037 20.9179 196.551 21.3717 195.968 21.3717H151.266C150.683 21.3717 150.197 20.9179 150.197 20.3734C150.197 19.8289 150.683 19.3752 151.266 19.3752H158.457C157.777 17.6509 156.514 16.2897 155.153 15.4729C153.89 14.6562 152.432 14.2931 150.975 14.2931C149.517 14.2931 147.962 14.6562 146.699 15.3822C144.853 16.3804 143.298 18.1954 142.52 20.6457C142.423 21.0994 141.937 21.4624 141.451 21.4624H129.985V21.3717ZM204.131 21.3717C203.548 21.3717 203.062 20.9179 203.062 20.3734C203.062 19.8289 203.548 19.3752 204.131 19.3752H212.196C212.779 19.3752 213.265 19.8289 213.265 20.3734C213.265 20.9179 212.779 21.3717 212.196 21.3717H204.131ZM103.65 12.6596C102.386 7.57764 99.4709 4.40138 96.0697 2.94938C94.2233 2.22338 92.377 1.86038 90.4334 2.04188C88.4899 2.22338 86.6435 2.85863 84.9915 3.94763C81.7847 6.03488 79.4524 9.66489 79.1609 14.8376C79.1609 15.3821 78.5778 15.8359 77.9948 15.8359C77.6061 15.8359 77.3145 15.6544 77.1202 15.3822C75.4681 13.3857 73.0387 12.1151 70.6093 11.7521C69.4432 11.5706 68.3742 11.5706 67.2081 11.8429C66.1392 12.1151 65.0702 12.5689 64.0984 13.2041C62.4464 14.3839 61.0859 16.3804 60.3085 19.2844H120.267C120.267 16.3804 119.392 14.1117 118.032 12.6596C117.351 11.9336 116.671 11.3891 115.797 11.0261C114.922 10.6631 114.047 10.3909 112.979 10.3909C110.549 10.3001 107.828 11.2076 105.107 13.2949C104.621 13.6579 103.941 13.5672 103.552 13.1134C103.747 12.9319 103.65 12.8411 103.65 12.6596ZM96.9443 1.13437C100.54 2.67713 103.65 5.85338 105.302 10.7539C108.022 8.93889 110.841 8.21289 113.367 8.30364C114.631 8.39439 115.894 8.66664 117.06 9.21114C118.129 9.75564 119.198 10.4816 119.975 11.3891C121.822 13.4764 122.793 16.4712 122.696 20.3734C122.696 20.9179 122.21 21.3717 121.627 21.3717H59.3368C59.2396 21.3717 59.2396 21.3717 59.1424 21.3717C58.5593 21.2809 58.1706 20.7364 58.2678 20.1919C58.948 16.1082 60.7944 13.2949 63.1267 11.6614C64.2928 10.7539 65.6533 10.2094 67.0137 9.93714C68.3742 9.66489 69.8319 9.57414 71.1924 9.84639C73.4274 10.2094 75.5653 11.1169 77.4117 12.5689C78.1891 7.84988 80.7157 4.40138 83.9226 2.31413C85.8661 1.04363 88.1012 0.317626 90.3362 0.0453753C92.4741 -0.136125 94.8064 0.226873 96.9443 1.13437ZM1.71072 35.8009C1.12766 35.8009 0.641785 35.3472 0.641785 34.8027C0.641785 34.2582 1.12766 33.8044 1.71072 33.8044H16.2873C17.4534 30.7189 19.397 28.5409 21.7292 27.1797C23.5756 26.1814 25.6163 25.6369 27.5598 25.7277C29.6006 25.7277 31.5441 26.2722 33.3905 27.3612C35.5284 28.7224 37.3747 30.8097 38.3465 33.8044H41.7477C42.3308 33.8044 42.8166 34.2582 42.8166 34.8027C42.8166 35.3472 42.3308 35.8009 41.7477 35.8009H30.2808C29.6977 35.8009 29.2118 35.3472 29.2118 34.8027C29.2118 34.2582 29.6977 33.8044 30.2808 33.8044H36.0142C35.2368 31.6264 33.8764 30.0837 32.2243 29.0854C30.8639 28.2687 29.2118 27.8149 27.657 27.7242C26.005 27.7242 24.4502 28.0872 22.9925 28.9039C20.9518 30.0837 19.2026 32.0802 18.2308 34.9842C18.1337 35.4379 17.6478 35.8009 17.1619 35.8009H1.71072ZM49.1332 35.8009C48.5501 35.8009 48.0642 35.3472 48.0642 34.8027C48.0642 34.2582 48.5501 33.8044 49.1332 33.8044H73.2331C73.8161 33.8044 74.302 34.2582 74.302 34.8027C74.302 35.3472 73.8161 35.8009 73.2331 35.8009H49.1332ZM101.512 44.3314C100.929 44.3314 100.443 43.8777 100.443 43.3332C100.443 42.7887 100.929 42.3349 101.512 42.3349H109.772C110.355 42.3349 110.841 42.7887 110.841 43.3332C110.841 43.8777 110.355 44.3314 109.772 44.3314H101.512Z" fill="#F8F9FF"/>
</g>
</svg>
