<svg width="516" height="174" viewBox="0 0 516 174" fill="none" xmlns="http://www.w3.org/2000/svg">
<g opacity="0.7">
<g opacity="0.4">
<path d="M389.005 170.128C389.005 170.673 388.584 171.127 388.078 171.127C387.572 171.127 387.15 170.673 387.15 170.128V164.502H369.02V170.128C369.02 170.673 368.598 171.127 368.092 171.127C367.586 171.127 367.164 170.673 367.164 170.128V164.502H364.55V162.415H367.164V160.69H364.55V158.694H367.164V156.97H364.55V154.882H368.092H388.078H391.619V156.97H389.005V158.694H391.619V160.781H389.005V162.505H391.619V164.593H389.005V170.128ZM368.935 157.06V158.785H387.066V157.06H368.935ZM368.935 160.781V162.505H387.066V160.781H368.935Z" fill="#F8F9FF"/>
<path d="M381.558 108.328C387.376 108.328 392.605 110.869 396.484 114.952C400.279 119.036 402.64 124.753 402.64 131.015C402.64 137.277 400.279 142.903 396.484 147.078C392.858 150.98 387.967 153.43 382.57 153.703V170.128C382.57 170.673 382.148 171.127 381.642 171.127C381.136 171.127 380.715 170.673 380.715 170.128V153.703C375.318 153.43 370.342 150.98 366.8 147.078C363.006 142.994 360.645 137.277 360.645 131.015C360.645 124.753 363.006 119.127 366.8 114.952C370.511 110.869 375.739 108.328 381.558 108.328ZM385.184 133.828C385.521 133.465 386.196 133.465 386.533 133.828C386.87 134.191 386.87 134.917 386.533 135.28L382.57 139.546V151.525C387.461 151.252 391.93 148.984 395.135 145.535C398.592 141.814 400.784 136.642 400.784 130.924C400.784 125.207 398.676 120.034 395.135 116.314C391.677 112.593 386.87 110.233 381.558 110.233C376.245 110.233 371.438 112.502 367.981 116.314C364.524 120.034 362.331 125.207 362.331 130.924C362.331 136.642 364.439 141.814 367.981 145.535C371.27 149.074 375.655 151.252 380.546 151.525V146.352L373.294 138.547C372.956 138.184 372.956 137.458 373.294 137.095C373.631 136.732 374.306 136.732 374.643 137.095L380.546 143.448V130.924C380.546 130.38 380.967 129.926 381.473 129.926C381.979 129.926 382.401 130.38 382.401 130.924V136.642L385.184 133.828Z" fill="#E8EAFF"/>
<path d="M174.558 133.828C174.895 133.465 175.57 133.465 175.907 133.828C176.244 134.191 176.244 134.917 175.907 135.28L171.944 139.546V151.525C176.835 151.252 181.304 148.984 184.509 145.535C187.966 141.814 190.158 136.642 190.158 130.924C190.158 125.207 188.05 120.034 184.509 116.314C181.051 112.593 176.244 110.233 170.932 110.233C165.619 110.233 160.812 112.502 157.355 116.314C153.898 120.034 151.705 125.207 151.705 130.924C151.705 136.642 153.813 141.814 157.355 145.535C160.644 149.074 165.029 151.252 169.92 151.525V146.352L162.668 138.547C162.33 138.184 162.33 137.458 162.668 137.095C163.005 136.732 163.68 136.732 164.017 137.095L169.92 143.448V130.924C169.92 130.38 170.341 129.926 170.847 129.926C171.353 129.926 171.775 130.38 171.775 130.924V136.642L174.558 133.828ZM171.944 153.703V170.128C171.944 170.673 171.522 171.127 171.016 171.127C170.51 171.127 170.089 170.673 170.089 170.128V153.703C164.692 153.43 159.716 150.98 156.174 147.078C152.38 142.994 150.019 137.277 150.019 131.015C150.019 124.753 152.38 119.127 156.174 114.952C159.969 110.869 165.282 108.328 171.1 108.328C176.919 108.328 182.147 110.869 186.026 114.952C189.821 119.036 192.182 124.753 192.182 131.015C192.182 137.277 189.821 142.903 186.026 147.078C182.316 150.889 177.341 153.43 171.944 153.703Z" fill="#F8F9FF"/>
<path fill-rule="evenodd" clip-rule="evenodd" d="M389.003 109.326C400.134 109.326 409.157 119.036 409.157 131.015C409.157 142.994 400.134 152.704 389.003 152.704C377.872 152.704 368.848 142.994 368.848 131.015C368.848 119.036 377.872 109.326 389.003 109.326Z" fill="#3F4785" fill-opacity="0.3"/>
<path fill-rule="evenodd" clip-rule="evenodd" d="M171.016 109.326C182.147 109.326 191.17 119.036 191.17 131.015C191.17 142.994 182.147 152.704 171.016 152.704C159.885 152.704 150.862 142.994 150.862 131.015C150.862 119.036 159.885 109.326 171.016 109.326Z" fill="#3F4785" fill-opacity="0.3"/>
</g>
<path fill-rule="evenodd" clip-rule="evenodd" d="M475.101 7.50425V1.33325H482.185V34.5478V40.8095H483.871V45.9823H482.185V120.579H483.871V125.842H482.185V170.128H399.459V125.842H397.773V120.579H399.459V45.9823H397.773V40.8095H399.459V34.5478V1.33325H406.459V7.50425H475.101Z" fill="white"/>
<path d="M467.427 40.8095C467.427 41.354 467.006 41.8078 466.5 41.8078C465.994 41.8078 465.572 41.354 465.572 40.8095V7.59498C465.572 7.05048 465.994 6.59672 466.5 6.59672C467.006 6.59672 467.427 7.05048 467.427 7.59498V40.8095ZM415.988 40.8095C415.988 41.354 415.566 41.8078 415.06 41.8078C414.554 41.8078 414.133 41.354 414.133 40.8095V7.59498C414.133 7.05048 414.554 6.59672 415.06 6.59672C415.566 6.59672 415.988 7.05048 415.988 7.59498V40.8095ZM424.589 33.731C424.589 34.2755 424.167 34.7293 423.661 34.7293C423.156 34.7293 422.734 34.2755 422.734 33.731V7.50422C422.734 6.95972 423.156 6.50598 423.661 6.50598C424.167 6.50598 424.589 6.95972 424.589 7.50422V33.731ZM433.19 29.5565C433.19 30.101 432.769 30.5548 432.263 30.5548C431.757 30.5548 431.335 30.101 431.335 29.5565V7.50422C431.335 6.95972 431.757 6.50598 432.263 6.50598C432.769 6.50598 433.19 6.95972 433.19 7.50422V29.5565ZM441.708 25.382C441.708 25.9265 441.286 26.3803 440.78 26.3803C440.274 26.3803 439.852 25.9265 439.852 25.382V7.50422C439.852 6.95972 440.274 6.50598 440.78 6.50598C441.286 6.50598 441.708 6.95972 441.708 7.50422V25.382ZM450.309 29.5565C450.309 30.101 449.887 30.5548 449.381 30.5548C448.875 30.5548 448.454 30.101 448.454 29.5565V7.50422C448.454 6.95972 448.875 6.50598 449.381 6.50598C449.887 6.50598 450.309 6.95972 450.309 7.50422V29.5565ZM458.91 33.731C458.91 34.2755 458.489 34.7293 457.983 34.7293C457.477 34.7293 457.055 34.2755 457.055 33.731V7.50422C457.055 6.95972 457.477 6.50598 457.983 6.50598C458.489 6.50598 458.91 6.95972 458.91 7.50422V33.731Z" fill="#3F4785" fill-opacity="0.3"/>
<path fill-rule="evenodd" clip-rule="evenodd" d="M399.459 49.5215H482.185V52.7885H399.459V49.5215Z" fill="#3F4785" fill-opacity="0.3"/>
<path fill-rule="evenodd" clip-rule="evenodd" d="M399.459 125.842H482.185V129.109H399.459V125.842Z" fill="#3F4785" fill-opacity="0.3"/>
<path fill-rule="evenodd" clip-rule="evenodd" d="M438.25 58.5057H446.093V76.565H438.25V58.5057Z" fill="#3F4785" fill-opacity="0.3"/>
<path fill-rule="evenodd" clip-rule="evenodd" d="M414.217 58.5057H422.059V76.565H414.217V58.5057Z" fill="#3F4785" fill-opacity="0.3"/>
<path fill-rule="evenodd" clip-rule="evenodd" d="M462.283 98.2543H470.21V116.314H462.283V98.2543Z" fill="#3F4785" fill-opacity="0.3"/>
<path fill-rule="evenodd" clip-rule="evenodd" d="M438.25 98.2543H446.093V116.314H438.25V98.2543Z" fill="#3F4785" fill-opacity="0.3"/>
<path fill-rule="evenodd" clip-rule="evenodd" d="M414.217 98.2543H422.059V116.314H414.217V98.2543Z" fill="#3F4785" fill-opacity="0.3"/>
<path fill-rule="evenodd" clip-rule="evenodd" d="M462.283 137.912H470.21V166.317H462.283V137.912Z" fill="#3F4785" fill-opacity="0.3"/>
<path fill-rule="evenodd" clip-rule="evenodd" d="M414.217 137.912H446.093V166.317H414.217V137.912Z" fill="#3F4785" fill-opacity="0.3"/>
<path fill-rule="evenodd" clip-rule="evenodd" d="M462.283 58.5057H470.21V76.565H462.283V58.5057Z" fill="#3F4785" fill-opacity="0.3"/>
<path fill-rule="evenodd" clip-rule="evenodd" d="M415.735 139.909C415.735 141.179 414.723 142.268 413.542 142.268C412.362 142.268 411.35 141.179 411.35 139.909V133.828H415.65V139.909H415.735Z" fill="white"/>
<path fill-rule="evenodd" clip-rule="evenodd" d="M420.035 139.909C420.035 141.179 419.023 142.268 417.843 142.268C416.662 142.268 415.65 141.179 415.65 139.909V133.828H419.951V139.909H420.035Z" fill="#3F4785" fill-opacity="0.3"/>
<path fill-rule="evenodd" clip-rule="evenodd" d="M424.42 139.909C424.42 141.179 423.408 142.268 422.228 142.268C421.047 142.268 420.035 141.179 420.035 139.909V133.828H424.336V139.909H424.42Z" fill="white"/>
<path fill-rule="evenodd" clip-rule="evenodd" d="M428.721 139.909C428.721 141.179 427.709 142.268 426.529 142.268C425.348 142.268 424.336 141.179 424.336 139.909V133.828H428.637V139.909H428.721Z" fill="#3F4785" fill-opacity="0.3"/>
<path fill-rule="evenodd" clip-rule="evenodd" d="M433.106 139.909C433.106 141.179 432.094 142.268 430.914 142.268C429.733 142.268 428.721 141.179 428.721 139.909V133.828H433.022V139.909H433.106Z" fill="white"/>
<path fill-rule="evenodd" clip-rule="evenodd" d="M437.407 139.909C437.407 141.179 436.395 142.268 435.214 142.268C434.034 142.268 433.022 141.179 433.022 139.909V133.828H437.322V139.909H437.407Z" fill="#3F4785" fill-opacity="0.3"/>
<path fill-rule="evenodd" clip-rule="evenodd" d="M441.792 139.909C441.792 141.179 440.78 142.268 439.599 142.268C438.419 142.268 437.407 141.179 437.407 139.909V133.828H441.708V139.909H441.792Z" fill="white"/>
<path fill-rule="evenodd" clip-rule="evenodd" d="M446.093 139.909C446.093 141.179 445.081 142.268 443.9 142.268C442.719 142.268 441.707 141.179 441.707 139.909V133.828H446.008V139.909H446.093Z" fill="#3F4785" fill-opacity="0.3"/>
<path d="M419.108 133.828C419.108 133.284 419.529 132.83 420.035 132.83C420.541 132.83 420.963 133.284 420.963 133.828V139.909C420.963 140.272 421.132 140.544 421.3 140.816C421.553 141.088 421.806 141.179 422.144 141.179C422.481 141.179 422.734 140.998 422.987 140.816C423.24 140.544 423.324 140.272 423.324 139.909V133.828C423.324 133.284 423.746 132.83 424.252 132.83C424.758 132.83 425.179 133.284 425.179 133.828V139.909C425.179 140.272 425.348 140.635 425.517 140.816C425.77 141.088 426.023 141.179 426.36 141.179C426.697 141.179 426.95 140.998 427.203 140.816C427.456 140.544 427.541 140.272 427.541 139.909V133.828C427.541 133.284 427.962 132.83 428.468 132.83C428.974 132.83 429.396 133.284 429.396 133.828V139.909C429.396 140.272 429.564 140.635 429.733 140.816C429.986 141.088 430.239 141.179 430.576 141.179C430.914 141.179 431.167 140.998 431.42 140.816C431.673 140.544 431.757 140.272 431.757 139.909V133.828C431.757 133.284 432.179 132.83 432.684 132.83C433.19 132.83 433.612 133.284 433.612 133.828V139.909C433.612 140.272 433.696 140.544 433.949 140.816C434.202 141.088 434.455 141.179 434.793 141.179C435.13 141.179 435.383 140.998 435.636 140.816C435.889 140.544 435.973 140.272 435.973 139.909V133.828C435.973 133.284 436.395 132.83 436.901 132.83C437.407 132.83 437.828 133.284 437.828 133.828V139.909C437.828 140.272 437.913 140.544 438.166 140.816C438.419 141.088 438.672 141.179 439.009 141.179C439.346 141.179 439.599 140.998 439.852 140.816C440.105 140.544 440.19 140.272 440.19 139.909V133.828C440.19 133.284 440.611 132.83 441.117 132.83C441.623 132.83 442.045 133.284 442.045 133.828V139.909C442.045 140.272 442.129 140.544 442.382 140.816C442.635 141.088 442.888 141.179 443.225 141.179C443.563 141.179 443.816 140.998 444.069 140.816C444.322 140.544 444.406 140.272 444.406 139.909C444.406 139.364 444.828 138.91 445.334 138.91C445.84 138.91 446.261 139.364 446.261 139.909C446.261 140.816 445.924 141.633 445.334 142.268C444.743 142.903 443.984 143.266 443.141 143.266C442.298 143.266 441.539 142.903 440.949 142.359C440.358 142.903 439.599 143.266 438.84 143.266C437.997 143.266 437.238 142.903 436.648 142.359C436.058 142.903 435.299 143.266 434.54 143.266C433.696 143.266 432.937 142.903 432.347 142.359C431.757 142.903 430.998 143.266 430.239 143.266C429.396 143.266 428.637 142.903 428.046 142.359C427.456 142.903 426.697 143.266 425.938 143.266C425.095 143.266 424.336 142.903 423.746 142.359C423.155 142.903 422.397 143.266 421.638 143.266C420.794 143.266 420.035 142.903 419.445 142.359C418.855 142.903 418.096 143.266 417.337 143.266C416.494 143.266 415.735 142.903 415.144 142.359C414.554 142.903 413.795 143.266 413.036 143.266C412.193 143.266 411.434 142.903 410.844 142.268C410.253 141.633 409.916 140.816 409.916 139.909C409.916 139.364 410.338 138.91 410.844 138.91C411.35 138.91 411.771 139.364 411.771 139.909C411.771 140.272 411.94 140.635 412.109 140.816C412.361 141.088 412.614 141.179 412.952 141.179C413.289 141.179 413.542 140.998 413.795 140.816C414.048 140.635 414.132 140.272 414.132 139.909V133.828C414.132 133.284 414.554 132.83 415.06 132.83C415.566 132.83 415.988 133.284 415.988 133.828V139.909C415.988 140.272 416.072 140.544 416.325 140.816C416.578 141.088 416.831 141.179 417.168 141.179C417.505 141.179 417.758 140.998 418.011 140.816C418.264 140.635 418.349 140.272 418.349 139.909V133.828H419.108Z" fill="#3F4785"/>
<path d="M447.104 170.128C447.104 170.673 446.683 171.127 446.177 171.127C445.671 171.127 445.249 170.673 445.249 170.128V167.406H438.587H418.939H412.362V170.128C412.362 170.673 411.94 171.127 411.434 171.127C410.928 171.127 410.506 170.673 410.506 170.128V166.317V157.968V133.919C410.506 133.375 410.928 132.921 411.434 132.921H446.177C446.683 132.921 447.104 133.375 447.104 133.919V166.408V170.128ZM469.198 167.315H460.513V170.038C460.513 170.582 460.091 171.036 459.585 171.036C459.079 171.036 458.657 170.582 458.657 170.038V166.226V157.786V133.647C458.657 133.102 459.079 132.649 459.585 132.649H470.21C470.716 132.649 471.138 133.102 471.138 133.647V157.786V166.226V170.038C471.138 170.582 470.716 171.036 470.21 171.036C469.704 171.036 469.283 170.582 469.283 170.038V167.315H469.198ZM462.283 165.319H469.198V158.966H462.283V165.319ZM462.283 156.879H469.198V137.912H462.283V156.879ZM405.531 35.5459H400.387V39.7204H405.531V35.5459ZM400.387 33.4587H405.531V7.50415V2.24065H400.387V33.4587ZM398.447 39.7204V34.457V1.2424C398.447 0.697897 398.869 0.244141 399.375 0.244141H406.459C406.965 0.244141 407.386 0.697897 407.386 1.2424V6.50591H474.089V1.2424C474.089 0.697897 474.511 0.244141 475.017 0.244141H482.1C482.606 0.244141 483.028 0.697897 483.028 1.2424V34.457V39.7204H483.787C484.293 39.7204 484.715 40.1742 484.715 40.7187V45.9822C484.715 46.5267 484.293 46.9805 483.787 46.9805H483.028V49.4307V119.49H483.787C484.293 119.49 484.715 119.944 484.715 120.488V125.752C484.715 126.296 484.293 126.75 483.787 126.75H483.028V170.038C483.028 170.582 482.606 171.036 482.1 171.036C481.594 171.036 481.173 170.582 481.173 170.038V126.75H400.387V170.038C400.387 170.582 399.965 171.036 399.459 171.036C398.953 171.036 398.532 170.582 398.532 170.038V126.75H397.773C397.267 126.75 396.845 126.296 396.845 125.752V120.579C396.845 120.034 397.267 119.581 397.773 119.581H398.532V49.5215V47.0712H397.773C397.267 47.0712 396.845 46.6175 396.845 46.073V40.8095C396.845 40.265 397.267 39.8112 397.773 39.8112H398.447V39.7204ZM407.47 8.59316V34.5477V39.8112H421.132V34.5477C421.132 34.0939 421.385 33.7309 421.722 33.5494L440.443 24.4744C440.696 24.3837 440.949 24.3837 441.201 24.4744L459.922 33.5494C460.26 33.7309 460.513 34.0939 460.513 34.457V39.7204H474.174V34.457V8.50241H407.47V8.59316ZM476.029 33.4587H481.173V2.3314H476.029V7.59491V33.4587ZM481.173 35.5459H476.029V39.7204H481.173V35.5459ZM458.573 39.7204V35.1829L440.78 26.5617L422.987 35.1829V39.7204H458.573ZM462.283 67.3085H469.198V58.5057H462.283V67.3085ZM469.198 69.3958H462.283V75.5667H469.198V69.3958ZM470.21 77.5633H459.585C459.079 77.5633 458.657 77.1095 458.657 76.565V68.3067V54.422C458.657 53.8775 459.079 53.4237 459.585 53.4237H470.21C470.716 53.4237 471.138 53.8775 471.138 54.422V68.3067V76.565C471.138 77.1095 470.716 77.5633 470.21 77.5633ZM438.25 67.3085H445.165V58.5057H438.25V67.3085ZM445.165 69.3958H438.25V75.5667H445.165V69.3958ZM446.093 77.5633H435.467C434.961 77.5633 434.54 77.1095 434.54 76.565V68.3067V54.422C434.54 53.8775 434.961 53.4237 435.467 53.4237H446.093C446.598 53.4237 447.02 53.8775 447.02 54.422V68.3067V76.565C447.104 77.1095 446.598 77.5633 446.093 77.5633ZM414.217 67.3085H421.132V58.5057H414.217V67.3085ZM421.132 69.3958H414.217V75.5667H421.132V69.3958ZM422.059 77.5633H411.434C410.928 77.5633 410.506 77.1095 410.506 76.565V68.3067V54.422C410.506 53.8775 410.928 53.4237 411.434 53.4237H422.059C422.565 53.4237 422.987 53.8775 422.987 54.422V68.3067V76.565C422.987 77.1095 422.565 77.5633 422.059 77.5633ZM462.874 90.359H458.742L459.079 93.1723H459.501H470.126H470.548L470.885 90.359H466.753C466.247 90.359 465.825 89.9053 465.825 89.3608V88.7255H463.886V89.3608C463.886 89.9053 463.38 90.359 462.874 90.359ZM458.573 95.1688H458.32C457.814 95.1688 457.477 94.8058 457.392 94.2613L456.718 89.4515C456.718 89.3608 456.718 89.3608 456.718 89.27C456.718 88.7255 457.139 88.2718 457.645 88.2718H461.946V87.6365C461.946 87.092 462.368 86.6383 462.874 86.6383H466.753C467.259 86.6383 467.68 87.092 467.68 87.6365V88.2718H471.981C472.487 88.2718 472.909 88.7255 472.909 89.27C472.909 89.3608 472.909 89.3608 472.909 89.4515L472.318 94.2613C472.234 94.8058 471.812 95.1688 471.391 95.1688H471.138V108.055V116.314C471.138 116.858 470.716 117.312 470.21 117.312H459.585C459.079 117.312 458.657 116.858 458.657 116.314V108.055V95.1688H458.573ZM462.283 107.057H469.198V98.2543H462.283V107.057ZM469.198 109.054H462.283V115.225H469.198V109.054ZM438.25 107.057H445.165V98.2543H438.25V107.057ZM445.165 109.054H438.25V115.225H445.165V109.054ZM446.093 117.312H435.467C434.961 117.312 434.54 116.858 434.54 116.314V108.055V95.1688H434.287C433.781 95.1688 433.443 94.8058 433.359 94.2613L432.684 89.4515C432.684 89.3608 432.684 89.3608 432.684 89.27C432.684 88.7255 433.106 88.2718 433.612 88.2718H437.913V87.6365C437.913 87.092 438.334 86.6383 438.84 86.6383H442.972C443.478 86.6383 443.9 87.092 443.9 87.6365V88.2718H447.948C448.454 88.2718 448.875 88.7255 448.875 89.27C448.875 89.3608 448.875 89.3608 448.875 89.4515L448.201 94.2613C448.116 94.8058 447.695 95.1688 447.273 95.1688H447.02V108.055V116.314C447.104 116.858 446.598 117.312 446.093 117.312ZM435.467 93.0815H446.093H446.514L446.851 90.2683H442.888C442.382 90.2683 441.96 89.8145 441.96 89.27V88.6348H439.768V89.27C439.768 89.8145 439.346 90.2683 438.84 90.2683H434.708L435.046 93.0815H435.467ZM414.217 115.225H421.132V109.054H414.217V115.225ZM421.132 107.057V98.2543H414.217V107.057H421.132ZM415.735 89.27C415.735 89.8145 415.313 90.2683 414.807 90.2683H410.675L411.012 93.0815H411.434H422.059H422.481L422.818 90.2683H418.686C418.18 90.2683 417.758 89.8145 417.758 89.27V88.6348H415.735V89.27ZM410.422 95.1688H410.169C409.663 95.1688 409.326 94.8058 409.241 94.2613L408.567 89.4515C408.567 89.3608 408.567 89.3608 408.567 89.27C408.567 88.7255 408.988 88.2718 409.494 88.2718H413.795V87.6365C413.795 87.092 414.217 86.6383 414.723 86.6383H418.602C419.108 86.6383 419.529 87.092 419.529 87.6365V88.2718H423.83C424.336 88.2718 424.758 88.7255 424.758 89.27C424.758 89.3608 424.758 89.3608 424.758 89.4515L424.252 94.2613C424.167 94.8058 423.746 95.1688 423.324 95.1688H423.071V108.055V116.314C423.071 116.858 422.649 117.312 422.143 117.312H411.518C411.012 117.312 410.591 116.858 410.591 116.314V108.055V95.1688H410.422ZM481.173 50.5197H400.387V119.49H481.173V50.5197ZM400.387 48.5232H481.173V47.0712H400.387V48.5232ZM398.7 44.984H399.459H482.185H482.944V41.8077H482.185H475.101H459.585H422.143H406.627H399.544H398.785V44.984H398.7ZM398.7 124.844H399.459H482.185H482.944V121.668H482.185H399.459H398.7V124.844ZM437.66 165.319V158.966H419.867V165.319H437.66ZM437.66 156.879V141.905C437.66 141.361 438.081 140.907 438.587 140.907C439.093 140.907 439.515 141.361 439.515 141.905V156.879H445.081V134.827H412.277V142.268H414.132V156.879H417.843V141.905C417.843 141.361 418.264 140.907 418.77 140.907C419.276 140.907 419.698 141.361 419.698 141.905V156.879H437.66ZM439.515 158.966V165.319H445.081V158.966H439.515ZM417.927 165.319V158.966H414.217V165.319H417.927Z" fill="#3F4785"/>
<path fill-rule="evenodd" clip-rule="evenodd" d="M94.6997 28.4675H146.73V169.039H48.4882V134.191H40.6458V168.949H37.357V134.191H33.9839V114.317H48.4882V19.937H94.6997V28.4675Z" fill="white"/>
<path d="M78.2559 104.698C78.7618 104.698 79.1835 105.151 79.1835 105.696C79.1835 106.24 78.7618 106.694 78.2559 106.694H65.1851C64.6791 106.694 64.2575 106.24 64.2575 105.696C64.2575 105.151 64.6791 104.698 65.1851 104.698H78.2559ZM53.1263 44.621C53.6322 44.621 54.0539 45.0748 54.0539 45.6193C54.0539 46.1638 53.6322 46.6175 53.1263 46.6175H48.4883C47.9823 46.6175 47.5607 46.1638 47.5607 45.6193C47.5607 45.0748 47.9823 44.621 48.4883 44.621H53.1263ZM53.1263 53.1515C53.6322 53.1515 54.0539 53.6053 54.0539 54.1498C54.0539 54.6943 53.6322 55.148 53.1263 55.148H48.4883C47.9823 55.148 47.5607 54.6943 47.5607 54.1498C47.5607 53.6053 47.9823 53.1515 48.4883 53.1515H53.1263ZM53.1263 61.7728C53.6322 61.7728 54.0539 62.2266 54.0539 62.7711C54.0539 63.3156 53.6322 63.7693 53.1263 63.7693H48.4883C47.9823 63.7693 47.5607 63.3156 47.5607 62.7711C47.5607 62.2266 47.9823 61.7728 48.4883 61.7728H53.1263ZM53.1263 70.3941C53.6322 70.3941 54.0539 70.8478 54.0539 71.3923C54.0539 71.9368 53.6322 72.3906 53.1263 72.3906H48.4883C47.9823 72.3906 47.5607 71.9368 47.5607 71.3923C47.5607 70.8478 47.9823 70.3941 48.4883 70.3941H53.1263ZM53.1263 78.9246C53.6322 78.9246 54.0539 79.3783 54.0539 79.9228C54.0539 80.4673 53.6322 80.9211 53.1263 80.9211H48.4883C47.9823 80.9211 47.5607 80.4673 47.5607 79.9228C47.5607 79.3783 47.9823 78.9246 48.4883 78.9246H53.1263ZM53.1263 87.5459C53.6322 87.5459 54.0539 87.9996 54.0539 88.5441C54.0539 89.0886 53.6322 89.5424 53.1263 89.5424H48.4883C47.9823 89.5424 47.5607 89.0886 47.5607 88.5441C47.5607 87.9996 47.9823 87.5459 48.4883 87.5459H53.1263ZM53.1263 96.0764C53.6322 96.0764 54.0539 96.5301 54.0539 97.0746C54.0539 97.6191 53.6322 98.0729 53.1263 98.0729H48.4883C47.9823 98.0729 47.5607 97.6191 47.5607 97.0746C47.5607 96.5301 47.9823 96.0764 48.4883 96.0764H53.1263ZM53.1263 104.698C53.6322 104.698 54.0539 105.151 54.0539 105.696C54.0539 106.24 53.6322 106.694 53.1263 106.694H48.4883C47.9823 106.694 47.5607 106.24 47.5607 105.696C47.5607 105.151 47.9823 104.698 48.4883 104.698H53.1263ZM78.2559 27.4692C78.7618 27.4692 79.1835 27.923 79.1835 28.4675C79.1835 29.012 78.7618 29.4658 78.2559 29.4658H48.4883C47.9823 29.4658 47.5607 29.012 47.5607 28.4675C47.5607 27.923 47.9823 27.4692 48.4883 27.4692H78.2559ZM78.2559 35.9998C78.7618 35.9998 79.1835 36.4535 79.1835 36.998C79.1835 37.5425 78.7618 37.9963 78.2559 37.9963H48.4883C47.9823 37.9963 47.5607 37.5425 47.5607 36.998C47.5607 36.4535 47.9823 35.9998 48.4883 35.9998H78.2559ZM78.2559 44.621C78.7618 44.621 79.1835 45.0748 79.1835 45.6193C79.1835 46.1638 78.7618 46.6175 78.2559 46.6175H65.1851C64.6791 46.6175 64.2575 46.1638 64.2575 45.6193C64.2575 45.0748 64.6791 44.621 65.1851 44.621H78.2559ZM78.2559 53.1515C78.7618 53.1515 79.1835 53.6053 79.1835 54.1498C79.1835 54.6943 78.7618 55.148 78.2559 55.148H65.1851C64.6791 55.148 64.2575 54.6943 64.2575 54.1498C64.2575 53.6053 64.6791 53.1515 65.1851 53.1515H78.2559ZM78.2559 61.7728C78.7618 61.7728 79.1835 62.2266 79.1835 62.7711C79.1835 63.3156 78.7618 63.7693 78.2559 63.7693H65.1851C64.6791 63.7693 64.2575 63.3156 64.2575 62.7711C64.2575 62.2266 64.6791 61.7728 65.1851 61.7728H78.2559ZM78.2559 70.3941C78.7618 70.3941 79.1835 70.8478 79.1835 71.3923C79.1835 71.9368 78.7618 72.3906 78.2559 72.3906H65.1851C64.6791 72.3906 64.2575 71.9368 64.2575 71.3923C64.2575 70.8478 64.6791 70.3941 65.1851 70.3941H78.2559ZM78.2559 78.9246C78.7618 78.9246 79.1835 79.3783 79.1835 79.9228C79.1835 80.4673 78.7618 80.9211 78.2559 80.9211H65.1851C64.6791 80.9211 64.2575 80.4673 64.2575 79.9228C64.2575 79.3783 64.6791 78.9246 65.1851 78.9246H78.2559ZM78.2559 87.5459C78.7618 87.5459 79.1835 87.9996 79.1835 88.5441C79.1835 89.0886 78.7618 89.5424 78.2559 89.5424H65.1851C64.6791 89.5424 64.2575 89.0886 64.2575 88.5441C64.2575 87.9996 64.6791 87.5459 65.1851 87.5459H78.2559ZM78.2559 96.0764C78.7618 96.0764 79.1835 96.5301 79.1835 97.0746C79.1835 97.6191 78.7618 98.0729 78.2559 98.0729H65.1851C64.6791 98.0729 64.2575 97.6191 64.2575 97.0746C64.2575 96.5301 64.6791 96.0764 65.1851 96.0764H78.2559Z" fill="#3F4785" fill-opacity="0.3"/>
<path fill-rule="evenodd" clip-rule="evenodd" d="M134.081 134.191V140.272H65.1851V169.039H55.8248V140.272H48.4883V134.191H134.081Z" fill="#3F4785" fill-opacity="0.3"/>
<path fill-rule="evenodd" clip-rule="evenodd" d="M55.8247 49.5215H65.1851V114.317H55.8247V49.5215Z" fill="#3F4785" fill-opacity="0.3"/>
<path fill-rule="evenodd" clip-rule="evenodd" d="M97.3982 49.5215H134.081V130.38H97.3982V49.5215Z" fill="#3F4785" fill-opacity="0.3"/>
<path fill-rule="evenodd" clip-rule="evenodd" d="M97.3982 113.954L134.081 91.1758V101.975L97.3982 124.844V113.954Z" fill="#3F4785" fill-opacity="0.1"/>
<path fill-rule="evenodd" clip-rule="evenodd" d="M97.3982 127.93L134.081 105.151V111.322L103.47 130.38H97.3982V127.93Z" fill="#3F4785" fill-opacity="0.1"/>
<path d="M79.2678 143.902C78.7619 143.902 78.3402 143.448 78.3402 142.903C78.3402 142.359 78.7619 141.905 79.2678 141.905H81.882C82.3879 141.905 82.8096 142.359 82.8096 142.903C82.8096 142.994 82.8096 143.085 82.7253 143.176L80.8701 151.162C80.7014 151.706 80.1954 152.069 79.6895 151.888C79.1835 151.706 78.8462 151.162 79.0148 150.617L80.6171 143.902H79.2678ZM69.4858 143.902C68.9799 143.902 68.5582 143.448 68.5582 142.903C68.5582 142.359 68.9799 141.905 69.4858 141.905H71.2567C71.7627 141.905 72.1843 142.359 72.1843 142.903V150.889C72.1843 151.434 71.7627 151.888 71.2567 151.888C70.7507 151.888 70.3291 151.434 70.3291 150.889V143.902H69.4858ZM74.9671 141.905H76.3164C76.738 141.905 77.1596 142.087 77.4126 142.359C77.6656 142.631 77.8343 143.085 77.8343 143.539V150.254C77.8343 150.708 77.6656 151.162 77.4126 151.434C77.1596 151.706 76.738 151.888 76.3164 151.888H74.9671C74.5455 151.888 74.1238 151.706 73.8709 151.434L73.7865 151.343C73.5335 151.071 73.3649 150.617 73.3649 150.254V143.539C73.3649 143.085 73.5335 142.631 73.7865 142.359C74.1238 142.087 74.5455 141.905 74.9671 141.905ZM75.9791 143.902H75.3044V149.8H75.9791V143.902Z" fill="#3F4785"/>
<path fill-rule="evenodd" clip-rule="evenodd" d="M65.1851 134.191V169.039H55.8247V140.272H53.1262V134.191H65.1851Z" fill="#3F4785" fill-opacity="0.3"/>
<path d="M54.1381 169.039C54.1381 169.584 53.7165 170.038 53.2105 170.038C52.7046 170.038 52.2829 169.584 52.2829 169.039V165.228V142.813V135.099H49.5001V168.949C49.5001 169.493 49.0785 169.947 48.5725 169.947C48.0666 169.947 47.6449 169.493 47.6449 168.949V135.099H41.6577V168.949C41.6577 169.493 41.236 169.947 40.7301 169.947C40.2241 169.947 39.8025 169.493 39.8025 168.949V135.099H38.4532V168.949C38.4532 169.493 38.0316 169.947 37.5256 169.947C37.0196 169.947 36.598 169.493 36.598 168.949V135.099H34.1525C33.6465 135.099 33.2249 134.645 33.2249 134.101V114.226C33.2249 113.682 33.6465 113.228 34.1525 113.228H47.7292V19.937C47.7292 19.3925 48.1509 18.9387 48.6569 18.9387H94.8683C95.3743 18.9387 95.7959 19.3925 95.7959 19.937V27.4692H146.898C147.404 27.4692 147.826 27.923 147.826 28.4675V169.039C147.826 169.584 147.404 170.038 146.898 170.038C146.392 170.038 145.971 169.584 145.971 169.039V29.4657H94.8683H82.9782V114.226C82.9782 114.771 82.5565 115.225 82.0505 115.225H65.3537H53.2949H48.6569H35.0801V133.012H37.5256H40.8144H48.6569H53.2949H65.3537H94.8683H134.249C134.755 133.012 135.177 133.465 135.177 134.01V142.722V160.146V168.858C135.177 169.402 134.755 169.856 134.249 169.856C133.743 169.856 133.322 169.402 133.322 168.858V161.416H95.8803V169.13C95.8803 169.675 95.4586 170.128 94.9527 170.128C94.4467 170.128 94.0251 169.675 94.0251 169.13V160.418V151.706V142.994V135.28H66.45V142.994V165.409V169.221C66.45 169.765 66.0283 170.219 65.5224 170.219C65.0164 170.219 64.5948 169.765 64.5948 169.221V166.498H56.162V170.31H54.4755V169.039H54.1381ZM134.081 131.378H126.154H102.626H94.6997C94.1937 131.378 93.7721 130.924 93.7721 130.38V88.544V79.9228V45.6192C93.7721 45.0747 94.1937 44.621 94.6997 44.621H102.626H126.154H134.081C134.587 44.621 135.008 45.0747 135.008 45.6192V88.544V114.226V130.289C135.008 130.924 134.587 131.378 134.081 131.378ZM97.3982 129.382H101.699V89.633H97.3982V129.382ZM103.638 129.382H125.226V114.317V89.633H103.638V129.382ZM127.081 129.382H133.069V115.315H127.081V129.382ZM133.153 113.228V89.5423H127.166V113.228H133.153ZM133.153 87.5458V49.6123H127.166V80.0135V87.5458H133.153ZM125.142 49.5215H103.554V78.9245H125.142V49.5215ZM101.699 49.5215H97.3982V78.9245H101.699V49.5215ZM97.3982 81.0118V87.5458H101.699V81.0118H97.3982ZM125.142 81.0118H103.554V87.5458H125.142V81.0118ZM52.1986 113.228V79.9228V45.6192C52.1986 45.0747 52.6202 44.621 53.1262 44.621H65.185C65.691 44.621 66.1127 45.0747 66.1127 45.6192V79.9228V113.228H80.87V28.4675C80.87 27.923 81.2916 27.4692 81.7976 27.4692H93.6878V20.9352H49.3315V113.228H52.1986ZM64.2574 113.228V80.921H55.8247V113.228H64.2574ZM64.2574 78.9245V49.5215H55.8247V78.9245H64.2574ZM133.153 159.329V152.614H95.7116V159.329H133.153ZM133.153 150.617V143.902H95.7116V150.617H133.153ZM133.153 141.905V135.19H95.7116V141.905H133.153ZM55.8247 140.272V141.905H64.2574V140.272H55.8247ZM64.2574 164.23V143.902H55.8247V164.23H64.2574Z" fill="#3F4785"/>
<path fill-rule="evenodd" clip-rule="evenodd" d="M349.116 85.6401V125.933H342.117V154.61H343.55V170.128H203.398V154.61H204.831V110.143L196.652 116.767C196.314 117.04 195.808 116.949 195.555 116.586L193.7 113.954C193.447 113.591 193.532 113.047 193.869 112.774L245.393 70.9386L263.439 85.5494H276.847V80.7396H278.112V71.3016H276.847V67.4901H278.112V63.6786H286.039V67.4901H287.304V71.3016H285.955V80.7396H287.219V85.5494H349.116V85.6401Z" fill="white"/>
<path d="M277.859 96.6209C277.859 97.1654 277.438 97.6191 276.932 97.6191C276.426 97.6191 276.004 97.1654 276.004 96.6209V91.4481C276.004 90.9036 276.426 90.4499 276.932 90.4499C277.438 90.4499 277.859 90.9036 277.859 91.4481V96.6209Z" fill="#3F4785" fill-opacity="0.3"/>
<path d="M268.836 89.2701C268.836 89.8146 268.415 90.2683 267.909 90.2683C267.403 90.2683 266.981 89.8146 266.981 89.2701V85.6401C266.981 85.0956 267.403 84.6418 267.909 84.6418C268.415 84.6418 268.836 85.0956 268.836 85.6401V89.2701Z" fill="#3F4785" fill-opacity="0.3"/>
<path d="M341.021 116.949C341.021 117.493 340.599 117.947 340.093 117.947C339.587 117.947 339.165 117.493 339.165 116.949V85.6401C339.165 85.0956 339.587 84.6418 340.093 84.6418C340.599 84.6418 341.021 85.0956 341.021 85.6401V116.949Z" fill="#3F4785" fill-opacity="0.3"/>
<path d="M331.997 116.949C331.997 117.493 331.576 117.947 331.07 117.947C330.564 117.947 330.142 117.493 330.142 116.949V85.6401C330.142 85.0956 330.564 84.6418 331.07 84.6418C331.576 84.6418 331.997 85.0956 331.997 85.6401V116.949Z" fill="#3F4785" fill-opacity="0.3"/>
<path d="M322.974 116.949C322.974 117.493 322.553 117.947 322.047 117.947C321.541 117.947 321.119 117.493 321.119 116.949V85.6401C321.119 85.0956 321.541 84.6418 322.047 84.6418C322.553 84.6418 322.974 85.0956 322.974 85.6401V116.949Z" fill="#3F4785" fill-opacity="0.3"/>
<path d="M313.951 116.949C313.951 117.493 313.53 117.947 313.024 117.947C312.518 117.947 312.096 117.493 312.096 116.949V85.6401C312.096 85.0956 312.518 84.6418 313.024 84.6418C313.53 84.6418 313.951 85.0956 313.951 85.6401V116.949Z" fill="#3F4785" fill-opacity="0.3"/>
<path d="M304.928 116.949C304.928 117.493 304.507 117.947 304.001 117.947C303.495 117.947 303.073 117.493 303.073 116.949V85.6401C303.073 85.0956 303.495 84.6418 304.001 84.6418C304.507 84.6418 304.928 85.0956 304.928 85.6401V116.949Z" fill="#3F4785" fill-opacity="0.3"/>
<path d="M295.905 111.232C295.905 111.776 295.484 112.23 294.978 112.23C294.472 112.23 294.05 111.776 294.05 111.232V85.6401C294.05 85.0956 294.472 84.6418 294.978 84.6418C295.484 84.6418 295.905 85.0956 295.905 85.6401V111.232Z" fill="#3F4785" fill-opacity="0.3"/>
<path d="M286.882 103.881C286.882 104.425 286.461 104.879 285.955 104.879C285.449 104.879 285.027 104.425 285.027 103.881V91.3573C285.027 90.8128 285.449 90.3591 285.955 90.3591C286.461 90.3591 286.882 90.8128 286.882 91.3573V103.881Z" fill="#3F4785" fill-opacity="0.3"/>
<path d="M234.683 162.415V165.319H226.082V162.415H234.683ZM264.451 153.612V122.031H275.751V153.612H264.451ZM272.884 149.891C273.39 149.891 273.811 149.437 273.811 148.893V125.933C273.811 125.389 273.39 124.935 272.884 124.935H267.318C266.812 124.935 266.391 125.389 266.391 125.933V148.893C266.391 149.437 266.812 149.891 267.318 149.891H272.884ZM269.932 147.895H268.246V132.286C268.836 132.013 269.426 131.832 269.932 131.56V147.895ZM277.606 153.612V120.942C277.606 120.397 277.185 119.944 276.679 119.944H263.439C262.933 119.944 262.512 120.397 262.512 120.942V153.612H260.403V118.492C261.668 117.312 263.186 116.404 264.704 115.769C266.391 115.043 268.161 114.68 270.017 114.68C271.872 114.68 273.643 115.043 275.329 115.769C276.847 116.404 278.365 117.312 279.63 118.492V153.612H277.606ZM223.384 157.423C222.878 157.423 222.456 157.877 222.456 158.422V166.226C222.456 166.771 222.878 167.224 223.384 167.224H235.611C236.117 167.224 236.539 166.771 236.539 166.226V158.422C236.539 157.877 236.117 157.423 235.611 157.423H223.384ZM281.148 157.423H258.97V155.608H259.476H263.523H276.679H280.726H281.232V157.423H281.148ZM281.148 161.326H258.97V159.511H281.148V161.326ZM281.148 165.319H258.97V163.413H281.148V165.319ZM222.456 147.895H220.516V121.94H222.456V147.895ZM236.623 121.94H240.333V147.895H236.623V121.94ZM234.683 147.895H224.311V121.94H234.683V147.895ZM217.818 116.949C217.312 116.949 216.89 117.403 216.89 117.947V148.802C216.89 149.347 217.312 149.8 217.818 149.8H223.384H235.611H241.177C241.683 149.8 242.104 149.347 242.104 148.802V117.947C242.104 117.403 241.683 116.949 241.177 116.949H235.611H223.384H217.818ZM245.309 86.5476C243.116 86.5476 241.177 87.4551 239.743 88.9978C238.31 90.5406 237.466 92.6279 237.466 94.9874C237.466 97.3469 238.31 99.4341 239.743 100.977C241.177 102.52 243.116 103.427 245.309 103.427C247.501 103.427 249.441 102.52 250.874 100.977C252.308 99.4341 253.151 97.3469 253.151 94.9874C253.151 92.6279 252.308 90.5406 250.874 88.9978C249.525 87.4551 247.501 86.5476 245.309 86.5476ZM253.236 112.23V153.612H252.73H205.759V110.687L245.309 78.5616L264.535 94.1706L242.526 112.048C242.104 112.321 241.936 112.774 241.851 113.319C241.767 113.773 241.936 114.317 242.189 114.68L244.044 117.312C244.297 117.766 244.718 117.947 245.224 118.038C245.646 118.129 246.152 117.947 246.489 117.675L253.236 112.23ZM286.292 109.144L270.691 96.4394C270.354 96.1671 269.848 96.1671 269.511 96.4394L253.741 109.235C253.741 109.235 253.657 109.235 253.657 109.326L245.646 115.86L243.959 113.5L266.812 94.9874L270.101 92.3556L296.243 113.591L294.556 115.951L286.714 109.598C286.545 109.326 286.461 109.235 286.292 109.144ZM281.317 117.221C279.799 115.769 278.028 114.589 276.088 113.773C274.149 112.956 272.125 112.593 270.017 112.593C267.908 112.593 265.885 113.047 263.945 113.773C262.006 114.589 260.319 115.678 258.717 117.221C258.464 117.403 258.379 117.675 258.379 118.038V153.612H257.874H255.006V110.687L269.932 98.6174L284.858 110.687V120.942V125.933V153.612H281.991H281.485V118.038C281.654 117.675 281.485 117.403 281.317 117.221ZM332.25 144.991H295.652V135.008H332.25V144.991ZM332.25 157.06H295.652V154.61V146.987H332.25V154.61V157.06ZM348.104 121.94V124.844H342.032H286.882V121.94H348.104ZM341.105 127.022V153.612H334.19V145.989V133.919C334.19 133.375 333.768 132.921 333.262 132.921H294.809C294.303 132.921 293.881 133.375 293.881 133.919V145.989V153.612H287.472H286.967V127.022H341.105ZM277.775 70.3941V68.5791H278.028H285.955H286.208V70.3941H285.955H278.028H277.775ZM284.943 66.4918H278.955V64.6768H284.943V66.4918ZM286.208 81.8286V85.6401V90.3591H277.775V85.6401V81.8286H278.028H285.955H286.208ZM284.943 79.8321H278.955V72.4813H284.943V79.8321ZM262.933 86.5476L268.499 91.0851L266.222 92.9001L245.983 76.4743C245.646 76.2021 245.14 76.2021 244.803 76.4743L204.326 109.326C204.326 109.326 204.241 109.326 204.241 109.417L196.23 115.951L194.544 113.591L245.393 72.3906L262.933 86.5476C262.849 86.4568 262.849 86.5476 262.933 86.5476ZM266.306 86.7291H275.835V91.4481C275.835 91.9926 276.257 92.4464 276.763 92.4464H287.135C287.641 92.4464 288.063 91.9926 288.063 91.4481V86.7291H348.104V119.944H286.882V112.23L293.544 117.675C293.966 117.947 294.387 118.129 294.809 118.038C295.231 117.947 295.652 117.766 295.99 117.312L297.845 114.68C298.098 114.226 298.266 113.773 298.182 113.319C298.098 112.865 297.929 112.411 297.507 112.048L270.691 90.2684L266.306 86.7291ZM239.827 97.6191C240.249 93.8984 243.201 91.0851 246.742 91.0851C248.26 91.0851 249.694 91.6296 250.874 92.5371C251.212 93.2631 251.38 94.1706 251.38 95.0781C251.38 96.8931 250.706 98.4359 249.609 99.6156C248.513 100.795 246.995 101.521 245.393 101.521C243.791 101.521 242.273 100.795 241.177 99.6156C240.586 99.0711 240.165 98.3451 239.827 97.6191ZM204.326 170.128V155.699H204.831H251.802V170.128C251.802 170.673 252.224 171.127 252.73 171.127C253.236 171.127 253.657 170.673 253.657 170.128V155.699H254.163H257.03V158.512V162.415V166.408V170.219C257.03 170.764 257.452 171.217 257.958 171.217C258.464 171.217 258.885 170.764 258.885 170.219V167.497H281.064V170.219C281.064 170.764 281.485 171.217 281.991 171.217C282.497 171.217 282.919 170.764 282.919 170.219V166.408V162.324V158.422V155.608H285.786H286.292V170.038C286.292 170.582 286.714 171.036 287.219 171.036C287.725 171.036 288.147 170.582 288.147 170.038V155.608H293.628V158.059V170.128C293.628 170.673 294.05 171.127 294.556 171.127C295.062 171.127 295.484 170.673 295.484 170.128V159.148H332.082V170.128C332.082 170.673 332.503 171.127 333.009 171.127C333.515 171.127 333.937 170.673 333.937 170.128V158.059V155.608H341.779H342.285V170.038C342.285 170.582 342.707 171.036 343.213 171.036C343.719 171.036 344.141 170.582 344.141 170.038V154.519C344.141 153.975 343.719 153.521 343.213 153.521H342.707V126.931H348.779C349.285 126.931 349.706 126.478 349.706 125.933V120.942V85.6401C349.706 85.0956 349.285 84.6418 348.779 84.6418H287.81V80.8303C287.81 80.2858 287.388 79.8321 286.882 79.8321H286.629V72.4813H286.882C287.388 72.4813 287.81 72.0276 287.81 71.4831V67.6716C287.81 67.1271 287.388 66.6733 286.882 66.6733H286.629V63.8601C286.629 63.3156 286.208 62.8618 285.702 62.8618H277.775C277.269 62.8618 276.847 63.3156 276.847 63.8601V66.6733H276.594C276.088 66.6733 275.667 67.1271 275.667 67.6716V71.4831C275.667 72.0276 276.088 72.4813 276.594 72.4813H276.847V79.8321H276.594C276.088 79.8321 275.667 80.2858 275.667 80.8303V84.6418H263.523L245.73 70.2126C245.393 69.9403 244.887 69.9403 244.55 70.2126L193.026 112.048C192.604 112.321 192.435 112.774 192.351 113.319C192.267 113.773 192.435 114.317 192.688 114.68L194.544 117.312C194.797 117.766 195.218 117.947 195.724 118.038C196.146 118.129 196.652 117.947 196.989 117.675L203.651 112.23V153.612H203.145C202.639 153.612 202.217 154.066 202.217 154.61V170.128C202.217 170.673 202.639 171.127 203.145 171.127C203.904 171.127 204.326 170.673 204.326 170.128ZM270.86 90.4499C270.776 90.3591 270.776 90.3591 270.691 90.2684L270.86 90.4499ZM246.152 70.3941C246.068 70.3033 246.068 70.3033 245.983 70.2126L246.152 70.3941Z" fill="#3F4785"/>
<path d="M268.246 132.286C268.836 132.013 269.426 131.832 269.932 131.56V147.895H268.246V132.286Z" fill="#3F4785" fill-opacity="0.3"/>
<path fill-rule="evenodd" clip-rule="evenodd" d="M246.742 91.0851C250.537 91.0851 253.657 94.4429 253.657 98.5266C253.657 102.61 250.537 105.968 246.742 105.968C242.948 105.968 239.827 102.61 239.827 98.5266C239.827 94.4429 242.948 91.0851 246.742 91.0851ZM342.032 125.933V131.106H304.254L307.542 139.273L304.76 143.266H300.543V170.128H287.388V154.61H285.955V114.317L272.546 103.427L254.247 118.31V142.813L242.779 113.5L245.393 117.221L254.247 110.052L270.101 97.1654L285.955 109.961L294.134 116.677L296.917 112.684L300.206 120.76H349.116V125.752H342.032V125.933ZM235.611 166.317H226.082V162.415H235.695V166.317H235.611ZM264.198 170.128H257.958V154.61L264.198 170.128ZM259.476 154.61H264.62V134.464C266.306 133.102 268.077 132.195 269.932 131.56V148.893H272.884V130.924C275.329 130.652 277.943 130.924 280.726 131.923V117.403C272.631 112.23 265.632 112.593 259.476 117.403V154.61ZM241.261 148.893H220.516V121.94H241.261V148.893ZM204.831 110.143L245.393 77.2911L266.475 94.3521L263.861 96.4394L247.839 83.4621L243.285 87.1829C241.43 87.7274 239.912 88.9979 238.984 90.7221L204.916 118.401V110.143H204.831Z" fill="#3F4785" fill-opacity="0.3"/>
<path opacity="0.4" d="M0.927601 173.53C0.421636 173.53 0 173.076 0 172.531C0 171.987 0.421636 171.533 0.927601 171.533H515.072C515.578 171.533 516 171.987 516 172.531C516 173.076 515.578 173.53 515.072 173.53H0.927601Z" fill="#F8F9FF"/>
</g>
</svg>
